<?xml version="1.0" standalone="no"?>
<svg width="700" height="500" viewBox="850 1000 60 650" version="1.1" xmlns="http://www.w3.org/2000/svg" xmlns:xlink="http://www.w3.org/1999/xlink" stroke-linecap="butt" stroke-linejoin="miter" stroke-miterlimit="3" fill-rule="evenodd" xml:space="preserve" >
<defs >
<clipPath id="clipId0" >
<path d="M0,2551 1984,2551 1984,0 0,0 z" />
</clipPath>
</defs>
<g clip-path="url(#clipId0)" fill="rgb(84,84,84)" stroke="rgb(84,84,84)" stroke-width="0.1" >
<polygon points="1037.54,1081.72 1037.54,1090.22 951.853,1175.91 947.704,1171.55 " />
<polygon points="862.845,1616.18 1015.96,1610.16 868.862,1610.16 " />
<polygon points="1141.49,1616.18 862.845,1616.18 1015.96,1610.16 1135.47,1610.16 " />
</g>
<g clip-path="url(#clipId0)" fill="none" stroke="rgb(0,85,81)" stroke-width="0.75" >
<path d="m987.7 1549.2l0 -16" />
<path d="M1003.72,1549.16  A15.9757,15.9757 0 0,0 987.747,1533.19 " />
<path d="M981.647,1304.74  A28.2169,28.2169 0 0,0 1008.91,1276.67 " />
</g>
<g clip-path="url(#clipId0)" fill="rgb(0,85,81)" stroke="rgb(0,85,81)" stroke-width="0.05" >
<polygon points="1020.11,1276.74 1020.11,1288.99 1020.94,1288.99 1020.94,1276.74 " />
</g>
<g clip-path="url(#clipId0)" fill="none" stroke="rgb(0,85,81)" stroke-width="0.75" >
<path d="M1009.12,1276.7  A12.2412,12.2412 0 0,0 1020.45,1288.95 " />
</g>
<g clip-path="url(#clipId0)" fill="rgb(0,85,81)" stroke="rgb(0,85,81)" stroke-width="0.05" >
<polygon points="981.315,1276.54 981.315,1304.55 982.145,1304.55 982.145,1276.54 " />
</g>
<g clip-path="url(#clipId0)" fill="none" stroke="rgb(0,0,0)" stroke-width="0.75" >
<path d="m990.0 1157.0l20.2 19.9" />
<path d="m1021.6 1165.5l-41.5 41.5" />
<path d="m973.2 1152.5l24.5 6.6" />
<path d="m975.9 1149.8l23.5 6.2" />
<path d="m983.2 1210.1l59.9 -59.9" />
<path d="m1040.0 1150.0l-57 57" />
<path d="m983.2 1207.2l57 -57" />
<path d="m1009.1 1118.9l-31.5 31.3" />
<path d="m1014.3 1238.4l-29.7 -29.7" />
<path d="m966.2 1161.6l29.6 29.7" />
<path d="m973.2 1154.5l29.7 29.7" />
<path d="m987.5 1140.2l17.3 17.2" />
<path d="m1001.4 1126.5l-23.8 23.7" />
</g>
<g clip-path="url(#clipId0)" fill="rgb(84,84,84)" stroke="rgb(84,84,84)" stroke-width="0.05" >
<polygon points="978.825,1538.37 978.825,1547.3 978.825,1551.24 978.825,1610.16 974.883,1610.16 974.883,1538.37 " />
</g>
<g clip-path="url(#clipId0)" fill="none" stroke="rgb(0,85,81)" stroke-width="0.75" >
<path d="m868.9 1523.4l0 67.5" />
<path d="m845.8 1515.3l0 83.7" />
<path d="m848.9 1519.5l0 75.3" />
<path d="m862.8 1523.4l-10.7 0l0 67.5" />
<path d="m862.8 1519.5l-13.9 0" />
<path d="m862.8 1515.3l-17 0" />
<path d="m862.8 1599.0l-17 0" />
<path d="m862.8 1594.8l-13.9 0" />
<path d="m862.8 1590.9l-10.7 0" />
</g>
<g clip-path="url(#clipId0)" fill="rgb(84,84,84)" stroke="rgb(84,84,84)" stroke-width="0.05" >
<polygon points="862.845,1590.87 868.862,1590.87 868.862,1610.16 862.845,1616.18 " />
<polygon points="580.054,1215.33 574.037,1048.73 580.054,1178.4 580.054,1211.39 " />
<polygon points="574.037,1327.37 574.037,1048.73 580.054,1215.33 580.054,1321.35 " />
</g>
<g clip-path="url(#clipId0)" fill="none" stroke="rgb(0,0,0)" stroke-width="0.75" >
<path d="m951.9 1175.9l29.6 29.7" />
</g>
<g clip-path="url(#clipId0)" fill="none" stroke="rgb(0,85,81)" stroke-width="0.75" >
<path d="M913.542,1181.31  A28.2169,28.2169 0 0,0 885.477,1208.57 " />
</g>
<g clip-path="url(#clipId0)" fill="rgb(0,85,81)" stroke="rgb(0,85,81)" stroke-width="0.05" >
<polygon points="913.47,1170.1 901.229,1170.1 901.229,1169.27 913.47,1169.27 " />
</g>
<g clip-path="url(#clipId0)" fill="none" stroke="rgb(0,85,81)" stroke-width="0.75" >
<path d="M901.262,1169.76  A12.2412,12.2412 0 0,0 913.515,1181.1 " />
</g>
<g clip-path="url(#clipId0)" fill="rgb(0,85,81)" stroke="rgb(0,85,81)" stroke-width="0.05" >
<polygon points="913.677,1208.9 885.668,1208.9 885.668,1208.07 913.677,1208.07 " />
</g>
<g clip-path="url(#clipId0)" fill="none" stroke="rgb(0,85,81)" stroke-width="0.75" >
<path d="m640.8 1202.5l16 0" />
<path d="M656.821,1202.47  A15.9757,15.9757 0 0,0 640.845,1186.49 " />
</g>
<g clip-path="url(#clipId0)" fill="rgb(84,84,84)" stroke="rgb(84,84,84)" stroke-width="0.05" >
<polygon points="666.78,1327.37 690.017,1321.35 666.78,1321.35 " />
<polygon points="701.428,1321.35 701.428,1327.37 666.78,1327.37 690.017,1321.35 " />
</g>
<g clip-path="url(#clipId0)" fill="none" stroke="rgb(0,85,81)" stroke-width="0.75" >
<path d="M653.294,1215.5  A24.6898,24.6898 0 0,0 679.356,1240.19 " />
<path d="m679.2 1240.2l0 -24.7" />
<path d="m680.7 1215.5l0 24.7" />
<path d="m680.7 1218.2l-1.5 0" />
<path d="m680.7 1220.9l-1.5 0" />
<path d="m680.7 1223.6l-1.5 0" />
<path d="m681.9 1215.5l-2.7 0" />
<path d="m679.2 1214.1l0 -1.5" />
<path d="m681.9 1212.6l-2.7 0" />
<path d="m680.7 1215.5l0 -1.4l-1.5 0" />
<path d="m681.9 1212.6l0 2.9" />
<path d="m680.7 1226.5l-1.5 0" />
<path d="m680.7 1229.2l-1.5 0" />
<path d="m680.7 1231.9l-1.5 0" />
<path d="m680.7 1234.6l-1.5 0" />
<path d="m680.7 1237.5l-1.5 0" />
<path d="m680.7 1240.2l-1.5 0" />
<path d="m678.2 1236.1l0 -5.2" />
<path d="m681.7 1236.1l0 -5.2" />
<path d="m651.8 1215.5l1.3 0" />
<path d="m653.1 1215.5l0 -1.4l1.4 0l0 -1.5l-2.7 0l0 2.9" />
<path d="m666.8 1321.4l-67.5 0" />
<path d="m674.7 1344.2l-83.4 0" />
<path d="m670.7 1341.3l-75.3 0" />
<path d="m666.8 1327.4l0 10.8l-67.5 0" />
<path d="m670.7 1327.4l0 13.9" />
<path d="m674.7 1327.4l0 16.8" />
<path d="m591.3 1327.4l0 16.8" />
<path d="m595.4 1327.4l0 13.9" />
<path d="m599.3 1327.4l0 10.8" />
</g>
<g clip-path="url(#clipId0)" fill="rgb(84,84,84)" stroke="rgb(84,84,84)" stroke-width="0.05" >
<polygon points="599.35,1321.35 599.35,1327.37 574.037,1327.37 580.054,1321.35 " />
<polygon points="642.92,1211.39 580.054,1215.33 580.054,1211.39 638.978,1211.39 " />
<polygon points="651.634,1211.39 651.634,1215.33 580.054,1215.33 642.92,1211.39 " />
<polygon points="638.978,1203.3 642.92,1203.3 642.92,1211.39 638.978,1211.39 " />
</g>
<g clip-path="url(#clipId0)" fill="none" stroke="rgb(0,85,81)" stroke-width="0.75" >
<path d="m903.1 1353.1l0 86.3" />
<path d="m903.1 1353.9l0 20.6" />
<path d="m900.2 1353.9l0 19.3" />
<path d="m897.1 1353.9l0 18.1" />
<path d="m903.1 1374.5l-22.6 21.8" />
<path d="m900.2 1373.2l-23.9 23.1" />
<path d="m897.1 1372.0l-25.1 24.3" />
<path d="m880.5 1396.3l22.6 22.6" />
<path d="m876.3 1396.3l23.9 23.8" />
<path d="m872.0 1396.3l25.1 25.1" />
<path d="m903.1 1418.9l0 20.5" />
<path d="m900.2 1420.1l0 19.3" />
<path d="m897.1 1421.4l0 18" />
</g>
<g clip-path="url(#clipId0)" fill="rgb(84,84,84)" stroke="rgb(84,84,84)" stroke-width="0.05" >
<polygon points="945.214,1474.47 941.272,1474.47 941.272,1443.56 945.214,1443.56 " />
</g>
<g clip-path="url(#clipId0)" fill="none" stroke="rgb(0,85,81)" stroke-width="0.75" >
<path d="m864.7 1488.6l0 -33.6" />
<path d="m866.8 1488.6l0 -33.6" />
<path d="m868.9 1455.0l0 33.6" />
<path d="m862.8 1455.0l0 33.6" />
</g>
<g clip-path="url(#clipId0)" fill="rgb(84,84,84)" stroke="rgb(84,84,84)" stroke-width="0.05" >
<polygon points="978.825,1499.99 974.883,1504.14 868.862,1504.14 868.862,1499.99 " />
<polygon points="868.862,1504.14 862.845,1488.58 868.862,1488.58 868.862,1499.99 " />
<polygon points="868.862,1523.44 862.845,1523.44 862.845,1488.58 868.862,1504.14 " />
<polygon points="941.272,1499.99 941.272,1498.12 945.214,1498.12 945.214,1499.99 " />
<polygon points="978.825,1508.08 974.883,1508.08 974.883,1504.14 978.825,1499.99 " />
<polygon points="986.917,1547.3 986.917,1551.24 978.825,1551.24 978.825,1547.3 " />
</g>
<g clip-path="url(#clipId0)" fill="none" stroke="rgb(0,85,81)" stroke-width="0.75" >
<path d="M941.509,1475.72  A19.0879,19.0879 0 0,0 922.421,1495.86 " />
<path d="m922.2 1495.8l19.3 0" />
<path d="m941.5 1497.1l-19.3 0" />
<path d="m939.4 1497.1l0 -1.3" />
<path d="m937.3 1497.1l0 -1.3" />
<path d="m935.0 1497.1l0 -1.3" />
<path d="m941.5 1498.1l0 -2.3" />
<path d="m942.5 1495.8l1.3 0" />
<path d="m943.8 1498.1l0 -2.3" />
<path d="m941.5 1497.1l1 0l0 -1.3" />
<path d="m943.8 1498.1l-2.3 0" />
<path d="m933.0 1497.1l0 -1.3" />
<path d="m930.9 1497.1l0 -1.3" />
<path d="m928.6 1497.1l0 -1.3" />
<path d="m926.5 1497.1l0 -1.3" />
<path d="m924.5 1497.1l0 -1.3" />
<path d="m922.2 1497.1l0 -1.3" />
<path d="m925.5 1495.0l4.2 0" />
<path d="m925.5 1497.9l4.2 0" />
<path d="m941.5 1474.5l0 1.2" />
<path d="m941.5 1475.7l1 0l0 1.1l1.3 0l0 -2.3l-2.3 0" />
<path d="M950.024,1510.86  A24.6898,24.6898 0 0,0 974.714,1536.92 " />
<path d="m950.0 1511.0l24.7 0" />
<path d="m974.7 1509.5l-24.7 0" />
<path d="m972.0 1509.5l0 1.5" />
<path d="m969.3 1509.5l0 1.5" />
<path d="m966.4 1509.5l0 1.5" />
<path d="m974.7 1508.1l0 2.9" />
<path d="m976.1 1511.0l1.3 0" />
<path d="m977.4 1508.1l0 2.9" />
<path d="m974.7 1509.5l1.4 0l0 1.5" />
<path d="m977.4 1508.1l-2.7 0" />
<path d="m963.7 1509.5l0 1.5" />
<path d="m961.0 1509.5l0 1.5" />
<path d="m958.3 1509.5l0 1.5" />
<path d="m955.4 1509.5l0 1.5" />
<path d="m952.7 1509.5l0 1.5" />
<path d="m950.0 1509.5l0 1.5" />
<path d="m954.1 1512.0l5.2 0" />
<path d="m954.1 1508.3l5.2 0" />
<path d="m974.7 1538.4l0 -1.5" />
<path d="m974.7 1536.9l1.4 0l0 -1.2l1.3 0l0 2.7l-2.7 0" />
</g>
<g clip-path="url(#clipId0)" fill="rgb(84,84,84)" stroke="rgb(84,84,84)" stroke-width="0.05" >
<polygon points="862.845,1439.41 978.825,1439.41 941.272,1443.56 868.862,1443.56 " />
<polygon points="868.862,1454.97 862.845,1454.97 862.845,1439.41 868.862,1443.56 " />
<polygon points="941.272,1443.56 978.825,1439.41 978.825,1466.38 974.883,1466.38 974.883,1443.56 945.214,1443.56 " />
</g>
<g clip-path="url(#clipId0)" fill="none" stroke="rgb(0,85,81)" stroke-width="0.75" >
<path d="m836.3 1287.1l-20.6 0" />
<path d="m836.3 1290.0l-19.3 0" />
<path d="m836.3 1293.1l-18.1 0" />
<path d="m815.7 1287.1l-21.7 22.4" />
<path d="m817.0 1290.0l-23 23.9" />
<path d="m818.2 1293.1l-24.2 25.1" />
<path d="m794.0 1309.5l-22.7 -22.4" />
<path d="m794.0 1313.9l-23.9 -23.9" />
<path d="m794.0 1318.2l-25.1 -25.1" />
<path d="m771.3 1287.1l-20.7 0" />
<path d="m770.1 1290.0l-19.5 0" />
<path d="m768.9 1293.1l-18.3 0" />
<path d="m837.1 1287.1l-86.5 0" />
</g>
<g clip-path="url(#clipId0)" fill="rgb(84,84,84)" stroke="rgb(84,84,84)" stroke-width="0.05" >
<polygon points="746.658,1245 750.6,1327.37 746.658,1321.35 746.658,1248.94 " />
<polygon points="750.6,1211.39 750.6,1327.37 746.658,1245 746.658,1215.33 " />
<polygon points="686.075,1321.35 686.075,1215.33 690.017,1211.39 690.017,1321.35 " />
<polygon points="750.6,1327.37 735.247,1327.37 735.247,1321.35 746.658,1321.35 " />
</g>
<g clip-path="url(#clipId0)" fill="none" stroke="rgb(0,85,81)" stroke-width="0.75" >
<path d="m701.4 1325.5l33.8 0" />
<path d="m701.4 1323.4l33.8 0" />
<path d="m735.2 1321.4l-33.8 0" />
<path d="m735.2 1327.4l-33.8 0" />
</g>
<g clip-path="url(#clipId0)" fill="rgb(84,84,84)" stroke="rgb(84,84,84)" stroke-width="0.05" >
<polygon points="690.017,1245 692.092,1245 692.092,1248.94 690.017,1248.94 " />
<polygon points="723.836,1215.33 723.836,1211.39 750.6,1211.39 746.658,1215.33 " />
<polygon points="715.744,1248.94 715.744,1245 746.658,1245 746.658,1248.94 " />
<polygon points="690.017,1211.39 686.075,1215.33 681.925,1215.33 681.925,1211.39 " />
</g>
<g clip-path="url(#clipId0)" fill="none" stroke="rgb(0,85,81)" stroke-width="0.75" >
<path d="M694.143,1267.79  A19.0879,19.0879 0 0,0 714.292,1248.71 " />
<path d="m694.2 1267.8l0 -19.1" />
<path d="m693.1 1248.7l0 19.1" />
<path d="m693.1 1250.8l1.1 0" />
<path d="m693.1 1252.9l1.1 0" />
<path d="m693.1 1255.2l1.1 0" />
<path d="m692.1 1248.7l2.1 0" />
<path d="m694.2 1247.5l0 -1" />
<path d="m692.1 1246.5l2.1 0" />
<path d="m693.1 1248.7l0 -1.2l1.1 0" />
<path d="m692.1 1246.5l0 2.2" />
<path d="m693.1 1257.2l1.1 0" />
<path d="m693.1 1259.3l1.1 0" />
<path d="m693.1 1261.4l1.1 0" />
<path d="m693.1 1263.7l1.1 0" />
<path d="m693.1 1265.7l1.1 0" />
<path d="m693.1 1267.8l1.1 0" />
<path d="m695.2 1264.7l0 -4.1" />
<path d="m692.3 1264.7l0 -4.1" />
<path d="m715.5 1248.7l-1 0" />
<path d="m714.5 1248.7l0 -1.2l-1 0l0 -1l2 0l0 2.2" />
</g>
<g clip-path="url(#clipId0)" fill="rgb(84,84,84)" stroke="rgb(84,84,84)" stroke-width="0.05" >
<polygon points="978.825,1353.1 974.883,1348.95 974.883,1278.82 978.825,1279.65 " />
<polygon points="897.079,1293.14 898.947,1287.12 945.214,1249.15 903.096,1291.27 " />
<polygon points="886.913,1293.14 886.913,1287.12 898.947,1287.12 897.079,1293.14 " />
<polygon points="903.096,1291.27 898.947,1287.12 940.857,1245 945.214,1249.15 " />
<polygon points="837.118,1293.14 837.118,1240.85 841.268,1240.85 841.268,1287.12 " />
<polygon points="853.302,1287.12 853.302,1293.14 837.118,1293.14 841.268,1287.12 " />
</g>
<g clip-path="url(#clipId0)" fill="none" stroke="rgb(0,85,81)" stroke-width="0.75" >
<path d="m886.9 1287.1l-33.6 0" />
<path d="m886.9 1296.2l-33.6 0" />
<path d="m889.8 1298.5l-39.6 0" />
<path d="m888.4 1297.3l-36.6 0" />
<path d="m889.8 1293.1l0 5.4" />
<path d="m888.4 1293.1l0 4.2" />
<path d="m886.9 1293.1l0 3.1" />
<path d="m853.3 1296.2l0 -3.1" />
<path d="m851.8 1297.3l0 -4.2" />
<path d="m850.2 1298.5l0 -5.4" />
</g>
<g clip-path="url(#clipId0)" fill="rgb(84,84,84)" stroke="rgb(84,84,84)" stroke-width="0.05" >
<polygon points="897.079,1353.1 903.096,1348.95 949.363,1348.95 949.363,1353.1 " />
<polygon points="903.096,1303.3 897.079,1303.3 897.079,1293.14 903.096,1291.27 " />
<polygon points="897.079,1336.91 903.096,1336.91 903.096,1348.95 897.079,1353.1 " />
</g>
<g clip-path="url(#clipId0)" fill="none" stroke="rgb(0,85,81)" stroke-width="0.75" >
<path d="m903.1 1303.3l0 33.6" />
<path d="m894.0 1303.3l0 33.6" />
<path d="m891.7 1300.4l0 39.4" />
<path d="m892.9 1301.8l0 36.6" />
<path d="m897.1 1300.4l-5.4 0" />
<path d="m897.1 1301.8l-4.2 0" />
<path d="m897.1 1303.3l-3.1 0" />
<path d="m894.0 1336.9l3.1 0" />
<path d="m892.9 1338.4l4.2 0" />
<path d="m891.7 1339.8l5.4 0" />
</g>
<g clip-path="url(#clipId0)" fill="rgb(84,84,84)" stroke="rgb(84,84,84)" stroke-width="0.05" >
<polygon points="972.808,1353.1 972.808,1348.95 974.883,1348.95 978.825,1353.1 " />
</g>
<g clip-path="url(#clipId0)" fill="none" stroke="rgb(0,85,81)" stroke-width="0.75" >
<path d="M970.757,1330.3  A19.0879,19.0879 0 0,0 950.608,1349.39 " />
<path d="m970.7 1330.1l0 19.3" />
<path d="m971.8 1349.4l0 -19.3" />
<path d="m971.8 1347.1l-1.1 0" />
<path d="m971.8 1345.0l-1.1 0" />
<path d="m971.8 1342.9l-1.1 0" />
<path d="m972.8 1349.4l-2.1 0" />
<path d="m970.7 1350.4l0 1" />
<path d="m972.8 1351.4l-2.1 0" />
<path d="m971.8 1349.4l0 1l-1.1 0" />
<path d="m972.8 1351.4l0 -2" />
<path d="m971.8 1340.6l-1.1 0" />
<path d="m971.8 1338.6l-1.1 0" />
<path d="m971.8 1336.5l-1.1 0" />
<path d="m971.8 1334.4l-1.1 0" />
<path d="m971.8 1332.1l-1.1 0" />
<path d="m971.8 1330.1l-1.1 0" />
<path d="m969.7 1333.2l0 4.1" />
<path d="m972.6 1333.2l0 4.1" />
<path d="m949.4 1349.4l1 0" />
<path d="m950.4 1349.4l0 1l1 0l0 1l-2 0l0 -2" />
</g>
<g clip-path="url(#clipId0)" fill="rgb(84,84,84)" stroke="rgb(84,84,84)" stroke-width="0.05" >
<polygon points="916.582,1209.31 910.565,1209.31 910.565,1211.39 " />
<polygon points="940.857,1245 916.582,1212.01 916.582,1209.31 910.565,1211.39 911.395,1215.33 " />
<polygon points="898.947,1287.12 945.214,1249.15 940.857,1245 " />
<polygon points="837.118,1211.39 910.565,1211.39 911.395,1215.33 841.268,1215.33 " />
<polygon points="841.268,1217.41 837.118,1217.41 837.118,1211.39 841.268,1215.33 " />
</g>
<g clip-path="url(#clipId0)" fill="none" stroke="rgb(0,85,81)" stroke-width="0.75" >
<path d="M840.824,1239.61  A19.0879,19.0879 0 0,0 859.911,1219.46 " />
<path d="m860.1 1219.5l-19.2 0" />
<path d="m840.9 1218.4l19.2 0" />
<path d="m842.9 1218.4l0 1.1" />
<path d="m845.2 1218.4l0 1.1" />
<path d="m847.3 1218.4l0 1.1" />
<path d="m840.9 1217.4l0 2.1" />
<path d="m839.8 1219.5l-1 0" />
<path d="m838.8 1217.4l0 2.1" />
<path d="m840.9 1218.4l-1.1 0l0 1.1" />
<path d="m838.8 1217.4l2.1 0" />
<path d="m849.4 1218.4l0 1.1" />
<path d="m851.6 1218.4l0 1.1" />
<path d="m853.7 1218.4l0 1.1" />
<path d="m855.8 1218.4l0 1.1" />
<path d="m858.1 1218.4l0 1.1" />
<path d="m860.1 1218.4l0 1.1" />
<path d="m856.8 1220.3l-3.9 0" />
<path d="m856.8 1217.4l-3.9 0" />
<path d="m840.9 1240.9l0 -1.1" />
<path d="m840.9 1239.8l-1.1 0l0 -1l-1 0l0 2.1l2.1 0" />
</g>
<g clip-path="url(#clipId0)" fill="rgb(84,84,84)" stroke="rgb(84,84,84)" stroke-width="0.05" >
<polygon points="978.203,1273.63 945.214,1249.15 940.857,1245 916.582,1212.01 " />
<polygon points="978.825,1279.65 974.883,1278.82 945.214,1249.15 978.203,1273.63 " />
<polygon points="980.9,1273.63 980.9,1279.65 978.825,1279.65 978.203,1273.63 " />
</g>
<g clip-path="url(#clipId0)" fill="none" stroke="rgb(0,0,0)" stroke-width="0.75" >
<path d="m980.1 1207.0l3.1 3.1" />
<path d="m983.0 1207.0l.2 .2" />
</g>
<g clip-path="url(#clipId0)" fill="rgb(84,84,84)" stroke="rgb(84,84,84)" stroke-width="0.05" >
<polygon points="666.78,1048.73 666.78,1054.74 690.017,1054.74 " />
<polygon points="708.275,1048.73 708.275,1054.74 690.017,1054.74 666.78,1048.73 " />
</g>
<g clip-path="url(#clipId0)" fill="none" stroke="rgb(0,85,81)" stroke-width="0.75" >
<path d="M677.488,1149.39  A24.6898,24.6898 0 0,0 651.426,1174.08 " />
<path d="m677.6 1149.4l0 24.6" />
<path d="m679.0 1174.0l0 -24.6" />
<path d="m679.0 1171.3l-1.4 0" />
<path d="m679.0 1168.6l-1.4 0" />
<path d="m679.0 1166.0l-1.4 0" />
<path d="m680.3 1174.0l-2.7 0" />
<path d="m677.6 1175.5l0 1.4" />
<path d="m680.3 1176.9l-2.7 0" />
<path d="m679.0 1174.0l0 1.5l-1.4 0" />
<path d="m680.3 1176.9l0 -2.9" />
<path d="m679.0 1163.0l-1.4 0" />
<path d="m679.0 1160.4l-1.4 -.1" />
<path d="m679.0 1157.7l-1.4 0" />
<path d="m679.0 1155.0l-1.4 0" />
<path d="m679.0 1152.1l-1.4 -.1" />
<path d="m679.0 1149.4l-1.4 0" />
<path d="m676.3 1153.5l0 5.2" />
<path d="m680.1 1153.5l0 5.2" />
<path d="m650.0 1174.0l1.4 0" />
<path d="m651.4 1174.0l0 1.5l1.5 0l0 1.4l-2.9 0l0 -2.9" />
<path d="m599.3 1054.7l67.5 0" />
<path d="m591.3 1031.9l83.4 0" />
<path d="m595.4 1034.8l75.3 0" />
<path d="m599.3 1048.7l0 -10.8l67.5 0" />
<path d="m595.4 1048.7l0 -13.9" />
<path d="m591.3 1048.7l0 -16.8" />
<path d="m674.7 1048.7l0 -16.8" />
<path d="m670.7 1048.7l0 -13.9" />
<path d="m666.8 1048.7l0 -10.8" />
</g>
<g clip-path="url(#clipId0)" fill="rgb(84,84,84)" stroke="rgb(84,84,84)" stroke-width="0.05" >
<polygon points="574.037,1048.73 580.054,1178.4 580.054,1054.74 " />
<polygon points="580.054,1178.4 580.054,1174.25 649.974,1174.25 638.978,1178.4 " />
<polygon points="638.978,1178.4 649.974,1174.25 649.974,1178.4 642.92,1178.4 " />
<polygon points="642.92,1186.49 638.978,1186.49 638.978,1178.4 642.92,1178.4 " />
<polygon points="599.35,1048.73 599.35,1054.74 580.054,1054.74 574.037,1048.73 " />
</g>
<g clip-path="url(#clipId0)" fill="none" stroke="rgb(0,85,81)" stroke-width="0.75" >
<path d="m780.9 1054.7l129.7 0" />
<path d="m780.9 1051.8l129.7 0" />
<path d="m780.9 1048.7l129.7 0" />
</g>
<g clip-path="url(#clipId0)" fill="rgb(84,84,84)" stroke="rgb(84,84,84)" stroke-width="0.05" >
<polygon points="686.075,1054.74 690.017,1054.74 690.017,1174.25 686.075,1174.25 " />
<polygon points="780.892,1048.73 780.892,1178.4 724.458,1178.4 724.458,1174.25 776.95,1174.25 776.95,1054.74 " />
<polygon points="690.017,1174.25 680.266,1178.4 680.266,1174.25 686.075,1174.25 " />
<polygon points="694.167,1174.25 694.167,1178.4 680.266,1178.4 690.017,1174.25 " />
</g>
<g clip-path="url(#clipId0)" fill="none" stroke="rgb(0,85,81)" stroke-width="0.75" >
<path d="M723.006,1174.08  A24.6898,24.6898 0 0,0 696.944,1149.39 " />
<path d="m696.9 1149.4l0 24.6" />
<path d="m695.4 1174.0l0 -24.6" />
<path d="m695.4 1171.3l1.5 0" />
<path d="m695.4 1168.6l1.5 0" />
<path d="m695.4 1166.0l1.5 0" />
<path d="m694.2 1174.0l2.7 0" />
<path d="m696.9 1175.5l0 1.4" />
<path d="m694.2 1176.9l2.7 0" />
<path d="m695.4 1174.0l0 1.5l1.5 0" />
<path d="m694.2 1176.9l0 -2.9" />
<path d="m695.4 1163.0l1.5 0" />
<path d="m695.4 1160.4l1.5 -.1" />
<path d="m695.4 1157.7l1.5 0" />
<path d="m695.4 1155.0l1.5 0" />
<path d="m695.4 1152.1l1.5 -.1" />
<path d="m695.4 1149.4l1.5 0" />
<path d="m698.1 1153.5l0 5.2" />
<path d="m694.4 1153.5l0 5.2" />
<path d="m724.5 1174.0l-1.5 0" />
<path d="m723.0 1174.0l0 1.5l-1.4 0l0 1.4l2.9 0l0 -2.9" />
<path d="m708.3 1054.7l50.4 0" />
<path d="m702.3 1031.9l62.4 0" />
<path d="m705.2 1034.8l56.6 0" />
<path d="m708.3 1048.7l0 -10.8l50.4 0" />
<path d="m705.2 1048.7l0 -13.9" />
<path d="m702.3 1048.7l0 -16.8" />
<path d="m764.7 1048.7l0 -16.8" />
<path d="m761.8 1048.7l0 -13.9" />
<path d="m758.7 1048.7l0 -10.8" />
</g>
<g clip-path="url(#clipId0)" fill="rgb(84,84,84)" stroke="rgb(84,84,84)" stroke-width="0.05" >
<polygon points="758.692,1048.73 780.892,1048.73 776.95,1054.74 758.692,1054.74 " />
<polygon points="916.582,1048.73 916.582,1168.86 910.565,1168.86 910.565,1048.73 " />
</g>
<g clip-path="url(#clipId0)" fill="none" stroke="rgb(0,0,0)" stroke-width="0.75" >
<path d="m951.9 1175.9l23 -23l-23 23" />
<path d="m959.1 1168.9l29.5 29.6" />
<path d="m980.5 1147.3l4.8 5" />
</g>
<g clip-path="url(#clipId0)" fill="rgb(84,84,84)" stroke="rgb(84,84,84)" stroke-width="0.05" >
<polygon points="1011.81,1547.3 1011.81,1551.24 1011.81,1610.16 1015.96,1610.16 " />
<polygon points="1015.96,1540.03 1015.96,1610.16 1011.81,1547.3 1011.81,1540.03 " />
</g>
<g clip-path="url(#clipId0)" fill="none" stroke="rgb(0,85,81)" stroke-width="0.75" >
<path d="m1135.5 1590.9l0 -67.5" />
<path d="m1158.3 1599.0l0 -83.7" />
<path d="m1155.2 1594.8l0 -75.3" />
<path d="m1141.5 1590.9l10.8 0l0 -67.5" />
<path d="m1141.5 1594.8l13.7 0" />
<path d="m1141.5 1599.0l16.8 0" />
<path d="m1141.5 1515.3l16.8 0" />
<path d="m1141.5 1519.5l13.7 0" />
<path d="m1141.5 1523.4l10.8 0" />
</g>
<g clip-path="url(#clipId0)" fill="rgb(84,84,84)" stroke="rgb(84,84,84)" stroke-width="0.05" >
<polygon points="1141.49,1590.87 1141.49,1616.18 1135.47,1610.16 1135.47,1590.87 " />
<polygon points="1018.45,1242.51 1014.3,1238.36 1099.99,1152.67 1108.5,1152.67 " />
</g>
<g clip-path="url(#clipId0)" fill="none" stroke="rgb(0,0,0)" stroke-width="0.75" >
<path d="m1014.3 1238.4l57.1 -57.3" />
<path d="m1028.6 1224.0l-29.7 -29.6" />
<path d="m1035.7 1216.8l-29.7 -29.5" />
<path d="m1042.7 1209.7l-29.4 -29.6" />
<path d="m1050.0 1202.7l-29.7 -29.7" />
<path d="m1014.3 1238.4l49.4 -49.6" />
</g>
<g clip-path="url(#clipId0)" fill="none" stroke="rgb(0,85,81)" stroke-width="0.75" >
<path d="m1135.5 1409.1l0 -129.5" />
<path d="m1138.4 1409.1l0 -129.5" />
<path d="m1141.5 1409.1l0 -129.5" />
<path d="m1135.5 1481.9l0 -50.6" />
<path d="m1158.3 1488.0l0 -62.7" />
<path d="m1155.2 1484.8l0 -56.4" />
<path d="m1141.5 1481.9l10.8 0l0 -50.6" />
<path d="m1141.5 1484.8l13.7 0" />
<path d="m1141.5 1488.0l16.8 0" />
<path d="m1141.5 1425.3l16.8 0" />
<path d="m1141.5 1428.4l13.7 0" />
<path d="m1141.5 1431.3l10.8 0" />
<path d="M1040.82,1493.27  A24.6898,24.6898 0 0,0 1016.13,1467.21 " />
<path d="m1040.9 1493.4l-24.9 -.1" />
<path d="m1016.0 1494.6l24.9 0" />
<path d="m1018.9 1494.6l0 -1.3" />
<path d="m1021.6 1494.6l0 -1.3" />
<path d="m1024.3 1494.6l0 -1.3" />
<path d="m1016.0 1496.0l0 -2.7" />
<path d="m1014.7 1493.4l-1.4 -.1" />
<path d="m1013.3 1496.0l0 -2.7" />
<path d="m1016.0 1494.6l-1.3 0l0 -1.3" />
<path d="m1013.3 1496.0l2.7 0" />
<path d="m1027.0 1494.6l0 -1.3" />
<path d="m1029.9 1494.6l0 -1.3" />
<path d="m1032.6 1494.6l0 -1.3" />
<path d="m1035.3 1494.6l0 -1.3" />
<path d="m1038.0 1494.6l0 -1.3" />
<path d="m1040.9 1494.6l0 -1.3" />
<path d="m1036.7 1492.1l-5.4 0" />
<path d="m1036.7 1495.8l-5.4 0" />
<path d="m1016.0 1465.8l0 1.4" />
<path d="m1016.0 1467.2l-1.3 0l0 1.3l-1.4 0l0 -2.7l2.7 0" />
</g>
<g clip-path="url(#clipId0)" fill="rgb(84,84,84)" stroke="rgb(84,84,84)" stroke-width="0.05" >
<polygon points="1015.96,1499.99 1135.47,1499.99 1135.47,1504.14 1015.96,1504.14 " />
<polygon points="1011.81,1509.74 1015.96,1509.74 1015.96,1499.99 " />
<polygon points="1011.81,1496.05 1015.96,1496.05 1015.96,1499.99 1011.81,1509.74 " />
<polygon points="1003.72,1551.24 1003.72,1547.3 1011.81,1547.3 1011.81,1551.24 " />
</g>
<g clip-path="url(#clipId0)" fill="none" stroke="rgb(0,85,81)" stroke-width="0.75" >
<path d="M1016.13,1538.58  A24.6898,24.6898 0 0,0 1040.82,1512.52 " />
<path d="m1040.9 1512.6l-24.9 0" />
<path d="m1016.0 1511.2l24.9 0" />
<path d="m1018.9 1511.2l0 1.4" />
<path d="m1021.6 1511.2l0 1.4" />
<path d="m1024.3 1511.2l0 1.4" />
<path d="m1016.0 1509.7l0 2.9" />
<path d="m1014.7 1512.6l-1.4 0" />
<path d="m1013.3 1509.7l0 2.9" />
<path d="m1016.0 1511.2l-1.3 0l0 1.4" />
<path d="m1013.3 1509.7l2.7 0" />
<path d="m1027.0 1511.2l0 1.4" />
<path d="m1029.9 1511.2l0 1.4" />
<path d="m1032.6 1511.2l0 1.4" />
<path d="m1035.3 1511.2l0 1.4" />
<path d="m1038.0 1511.2l0 1.4" />
<path d="m1040.9 1511.2l0 1.4" />
<path d="m1036.7 1513.7l-5.4 0" />
<path d="m1036.7 1509.9l-5.4 0" />
<path d="m1016.0 1540.0l0 -1.2" />
<path d="m1016.0 1538.8l-1.3 0l0 -1.5l-1.4 0l0 2.7l2.7 0" />
</g>
<g clip-path="url(#clipId0)" fill="rgb(84,84,84)" stroke="rgb(84,84,84)" stroke-width="0.05" >
<polygon points="1135.47,1499.99 1141.49,1523.44 1135.47,1523.44 1135.47,1504.14 " />
<polygon points="1135.47,1481.94 1141.49,1481.94 1141.49,1523.44 1135.47,1499.99 " />
<polygon points="1141.49,1409.12 1135.47,1413.26 1015.96,1413.26 1011.81,1409.12 " />
<polygon points="1011.81,1409.12 1015.96,1413.26 1015.96,1465.76 1011.81,1465.76 " />
<polygon points="1135.47,1431.32 1135.47,1413.26 1141.49,1409.12 1141.49,1431.32 " />
<polygon points="1021.36,1273.63 1141.49,1273.63 1141.49,1279.65 1021.36,1279.65 " />
</g>
<g clip-path="url(#clipId0)" fill="none" stroke="rgb(0,0,0)" stroke-width="0.75" >
<path d="m1021.4 1231.1l-29.7 -29.7" />
</g>
<g clip-path="url(#clipId0)" fill="rgb(84,84,84)" stroke="rgb(84,84,84)" stroke-width="0.05" >
<polygon points="1108.5,1152.67 1099.99,1152.67 1037.54,1090.22 1037.54,1081.72 " />
</g>
<g clip-path="url(#clipId0)" fill="none" stroke="rgb(0,0,0)" stroke-width="0.75" >
<path d="m1071.4 1181.1l-29.7 -29.5" />
<path d="m1009.5 1162.2l7.7 7.7" />
<path d="m997.7 1159.1l3.1 -5.4l-.6 8.9l3.3 -5.6l22.4 6.3" />
<path d="m1001.6 1160.1l21.6 5.9" />
<path d="m1043.1 1150.2l-3.1 -3.1l-15.5 15.5" />
<path d="m1040.2 1150.2l-.2 -.2" />
<path d="m1057.0 1195.4l-29.6 -29.7" />
<path d="m1064.3 1188.4l-29.7 -29.7" />
<path d="m994.8 1133.2l29.7 29.4" />
<path d="m1001.9 1125.9l29.6 29.7" />
<path d="m1009.1 1118.9l29.5 29.6" />
</g>
<g clip-path="url(#clipId0)" fill="none" stroke="rgb(9,199,246)" stroke-width="0.75" >
<path aria-label="Room №101" class="room" id="101" d="m580.1 1054.7l106 0l0 119.6l-106 0l0 -119.6" />
<path aria-label="Room №102" class="room" id="102" d="m690.0 1054.7l86.9 0l0 119.6l-86.9 0l0 -119.6" />
<path aria-label="Room №103" class="room" id="103" d="m580.1 1215.3l106 0l0 106.1l-106 0l0 -106.1" />
<path aria-label="Room №104" class="room" id="104" d="m1135.5 1500.0l-119.5 0l0 -86.7l119.5 0l0 86.7" />
<path aria-label="Room №105" class="room" id="105" d="m1135.5 1610.2l-119.5 0l0 -106.1l119.5 0l0 106.1" />
<path aria-label="Room №106" class="room" id="106" d="m974.9 1610.2l-106 0l0 -106.1l106 0l0 106.1" />
<path aria-label="Room №107" class="room" id="107" d="m868.9 1443.6l72.4 0l0 56.4l-72.4 0l0 -56.4" />
<path aria-label="Room №108" class="room" id="108" d="m746.7 1321.4l-56.7 0l0 -70.6l56.7 0l0 70.6" />
<path aria-label="Room №109" class="room" id="109" d="m746.7 1245.0l-56.7 0l0 -33.6l56.7 0l0 33.6" />
</g>
</svg>
